<svg width="180" height="75" viewBox="0 0 180 75" fill="none" xmlns="http://www.w3.org/2000/svg">
<rect width="180" height="75" fill="white"/>
<path fill-rule="evenodd" clip-rule="evenodd" d="M158.973 31.5733C158.829 31.6018 158.685 31.9147 158.685 32.0853C158.656 33.2229 158.627 36.2381 158.627 38.2858C158.627 38.3428 158.713 38.4564 158.8 38.4564C159.232 38.4849 160.271 38.5134 161.165 38.5134C162.405 38.5134 163.126 38.3428 163.529 38.1722C164.567 37.6602 165.058 36.5508 165.058 35.3277C165.058 32.5688 163.097 31.5163 160.184 31.5163C159.982 31.4881 159.406 31.4881 158.973 31.5733ZM166.413 44.2873C166.413 41.4716 164.308 39.907 160.501 39.907C160.328 39.907 159.117 39.8786 158.829 39.9355C158.742 39.964 158.627 40.0209 158.627 40.1064C158.627 42.1257 158.598 45.3398 158.685 46.5911C158.742 47.1316 159.146 47.8996 159.636 48.1272C160.155 48.4117 161.338 48.4683 162.145 48.4683C164.423 48.4683 166.413 47.217 166.413 44.2873ZM153.09 30.009C153.378 30.009 154.243 30.0942 156.464 30.0942C158.569 30.0942 160.242 30.0375 162.289 30.0375C164.798 30.0375 168.259 30.9192 168.259 34.6166C168.259 36.4371 166.961 37.8877 165.259 38.5988C165.173 38.6273 165.173 38.684 165.259 38.7124C167.682 39.3099 169.816 40.789 169.816 43.5763C169.816 46.3069 168.086 48.0417 165.577 49.1227C164.048 49.7768 162.145 50.0044 160.213 50.0044C158.742 50.0044 154.791 49.8338 152.6 49.8907C152.369 49.8053 152.802 48.7813 153.003 48.6107C153.523 48.5822 153.926 48.5538 154.474 48.3832C155.253 48.1841 155.339 47.9566 155.455 46.7905C155.512 45.7949 155.512 42.2678 155.512 39.7649C155.512 36.3232 155.541 33.991 155.512 32.8533C155.484 31.9717 155.166 31.6872 154.532 31.5163C154.042 31.4312 153.234 31.3173 152.571 31.2321C152.427 31.0897 152.917 30.1227 153.09 30.009ZM136.45 47.7006C137.143 48.2408 138.498 48.4683 139.709 48.4683C141.266 48.4683 142.824 48.1841 144.323 46.8471C145.852 45.482 146.919 43.3772 146.919 40.0209C146.919 36.8068 145.679 34.19 143.141 32.6542C141.699 31.7723 139.853 31.4027 137.719 31.4027C137.085 31.4027 136.479 31.4312 136.104 31.6018C136.018 31.6587 135.816 31.9147 135.816 32.0568C135.758 32.6258 135.758 37.0058 135.758 39.5659C135.758 42.2111 135.758 45.9085 135.816 46.3351C135.816 46.762 136.018 47.4161 136.45 47.7006ZM129.904 30.009C130.452 30.009 132.557 30.0942 133.567 30.0942C135.383 30.0942 136.681 30.009 140.113 30.009C142.997 30.009 145.419 30.7771 147.149 32.2274C149.254 34.0194 150.35 36.4941 150.35 39.5089C150.35 43.8038 148.36 46.2784 146.371 47.7006C144.381 49.1512 141.785 50.0044 138.094 50.0044C136.133 50.0044 132.759 49.9474 129.962 49.9189H129.933C129.789 49.6632 130.164 48.6677 130.394 48.6392C131.144 48.5538 131.346 48.5253 131.721 48.3832C132.326 48.1556 132.442 47.8427 132.529 46.7905C132.615 44.8278 132.586 42.4671 132.586 39.7934C132.586 37.8877 132.615 34.1615 132.557 32.9669C132.471 31.9717 132.038 31.7157 131.173 31.5448C130.74 31.4596 130.164 31.3457 129.356 31.2606C129.241 31.0613 129.76 30.1796 129.904 30.009Z" fill="#8E714E"/>
<path fill-rule="evenodd" clip-rule="evenodd" d="M95.0103 48.8097C94.2894 48.7243 93.7703 48.6107 93.1357 48.3262C93.0493 48.2692 92.905 47.985 92.905 47.8711C92.8472 46.8756 92.8472 44.0313 92.8472 42.1256C92.8472 40.5896 92.5879 39.2529 91.9245 38.3143C91.1458 37.2333 90.0212 36.6077 88.5793 36.6077C87.3104 36.6077 85.6089 37.4611 84.1959 38.6557C84.167 38.6839 83.9363 38.8832 83.9652 38.5703C83.9652 38.2573 84.0229 37.6317 84.0518 37.2051C84.0807 36.8067 83.85 36.6077 83.85 36.6077C82.927 37.0627 80.3316 37.6602 79.38 37.7453C78.6879 37.8877 78.515 38.5418 79.2359 38.7693H79.2648C80.0432 38.9969 80.5623 39.2529 80.966 39.5089C81.2544 39.7364 81.2255 40.0494 81.2255 40.3054C81.2544 42.4386 81.2544 45.7095 81.168 47.5015C81.1392 48.2126 80.9373 48.4683 80.4182 48.5822L80.4757 48.5537C80.0721 48.6392 79.7548 48.7243 79.2645 48.7813C79.0915 48.9518 79.0915 49.8622 79.2645 50.0613C79.5818 50.0613 81.2544 49.9759 82.6388 49.9759C84.5421 49.9759 85.5226 50.0613 86.0128 50.0613C86.2146 49.8338 86.2724 48.9803 86.1569 48.7813C85.6089 48.7528 85.2053 48.6961 84.8305 48.5822C84.3114 48.4683 84.167 48.2126 84.1382 47.6151C84.0807 46.1076 84.0807 42.9221 84.0807 40.7604C84.0807 40.163 84.2536 39.8785 84.4266 39.7079C85.0898 39.1393 86.1569 38.7409 87.1085 38.7409C88.0313 38.7409 88.637 39.0254 89.0984 39.3953C89.7328 39.907 89.9346 40.6465 90.0212 41.187C90.1653 42.4101 90.1078 44.8278 90.1078 46.9325C90.1078 48.0702 90.0212 48.3547 89.5887 48.4968C89.3869 48.5822 88.8677 48.6961 88.262 48.7528C88.0602 48.9518 88.1179 49.8338 88.262 50.0328C89.0984 50.0328 90.0789 49.9474 91.5208 49.9474C93.3086 49.9474 94.4623 50.0328 94.9237 50.0328C95.0678 49.8622 95.1255 49.0373 95.0101 48.8097H95.0103ZM102.998 37.9446C101.47 37.9446 100.518 39.1108 100.518 40.931C100.518 42.7798 101.354 44.913 103.719 44.913C104.123 44.913 104.873 44.7424 105.219 44.3443C105.767 43.8323 106.142 42.8082 106.142 41.7275C106.142 39.3668 104.959 37.9446 102.998 37.9446ZM102.796 50.5164C102.22 50.5164 101.816 50.6869 101.557 50.8293C100.345 51.5971 99.7974 52.3366 99.7974 53.2185C99.7974 54.0432 100.114 54.6973 100.807 55.2663C101.643 55.9774 102.796 56.3188 104.267 56.3188C107.209 56.3188 108.506 54.7543 108.506 53.2185C108.506 52.1375 107.958 51.4265 106.834 51.0284C106.026 50.6869 104.556 50.5164 102.796 50.5164ZM102.998 57.9115C101.239 57.9115 99.9703 57.5416 98.8746 56.7169C97.8075 55.9204 97.3461 54.7258 97.3461 53.9011C97.3461 53.6736 97.4039 53.0477 97.923 52.479C98.24 52.1375 98.9321 51.4834 100.576 50.3742C100.634 50.3458 100.662 50.3173 100.662 50.2603C100.662 50.2034 100.605 50.1464 100.547 50.1182C99.1917 49.6062 98.788 48.7813 98.6725 48.3262V48.2692C98.6439 48.0987 98.5862 47.9281 98.8457 47.7572C99.0476 47.6151 99.336 47.4445 99.653 47.2455C100.143 46.961 100.662 46.6481 100.98 46.392C101.037 46.3351 101.037 46.2784 101.037 46.2215C101.037 46.1645 100.98 46.1076 100.922 46.0794C98.9035 45.425 97.8941 43.9459 97.8941 41.7275C97.8941 40.2769 98.5573 38.9684 99.7396 38.1437C100.547 37.5178 102.566 36.75 103.892 36.75H103.979C105.334 36.7782 106.084 37.0627 107.151 37.4326C107.728 37.6317 108.276 37.7168 109.026 37.7168C110.15 37.7168 110.64 37.3757 111.044 36.9776C111.073 37.0343 111.131 37.1766 111.16 37.5463C111.188 37.9162 111.073 38.4564 110.784 38.8548C110.554 39.1675 110.035 39.3953 109.516 39.3953H109.371C108.852 39.3383 108.622 39.2814 108.622 39.2814L108.506 39.3383C108.478 39.3953 108.506 39.4519 108.535 39.5374L108.564 39.5943C108.622 39.8503 108.737 40.6181 108.737 40.8174C108.737 43.1497 107.786 44.1734 106.776 44.9414C105.796 45.6525 104.671 46.1076 103.402 46.2215C103.373 46.2215 103.258 46.2215 102.998 46.2499C102.854 46.2499 102.652 46.2784 102.623 46.2784H102.595C102.364 46.3351 101.787 46.6196 101.787 47.1031C101.787 47.5297 102.047 48.0417 103.287 48.1271C103.546 48.1556 103.806 48.1556 104.094 48.1841C105.738 48.2977 107.786 48.4401 108.737 48.7528C110.064 49.2363 110.9 50.4025 110.9 51.7964C110.9 53.9011 109.371 55.8637 106.834 57.0866C105.594 57.627 104.354 57.9115 102.998 57.9115ZM119.436 38.0868C118.83 38.0868 118.282 38.2289 117.879 38.5133C116.754 39.1959 116.177 40.5614 116.177 42.5522C116.177 46.2784 118.081 48.8952 120.791 48.8952C121.599 48.8952 122.233 48.6676 122.781 48.2126C123.617 47.5297 124.05 46.1645 124.05 44.2588C124.05 40.5614 122.176 38.0868 119.436 38.0868ZM119.955 50.2603C115.053 50.2603 113.294 46.705 113.294 43.3772C113.294 41.0449 114.245 39.2529 116.148 37.9729C117.504 37.1482 119.119 36.6931 120.561 36.6931C124.309 36.6931 126.934 39.3383 126.934 43.1497C126.934 45.7379 125.896 47.7857 123.906 49.0373C122.954 49.6629 121.311 50.2603 119.955 50.2603H119.955ZM68.5658 38.0868C67.9601 38.0868 67.4124 38.2289 67.0084 38.5133C65.8839 39.1959 65.307 40.5614 65.307 42.5522C65.307 46.2784 67.2103 48.8952 69.9211 48.8952C70.7286 48.8952 71.363 48.6676 71.911 48.2126C72.7471 47.5297 73.1799 46.1645 73.1799 44.2588C73.1799 40.5614 71.3341 38.0868 68.5658 38.0868ZM69.0849 50.2603C64.1824 50.2603 62.4232 46.705 62.4232 43.3772C62.4232 41.0449 63.3749 39.2529 65.2781 37.9729C66.6337 37.1482 68.2485 36.6931 69.6904 36.6931C73.4395 36.6931 76.0637 39.3383 76.0637 43.1497C76.0637 45.7379 75.0254 47.7857 73.0356 49.0373C72.1128 49.6629 70.4691 50.2603 69.0849 50.2603ZM36.1231 49.9759C36.0653 49.8907 36.0076 49.6347 36.0364 49.3217C36.0364 49.0942 36.0942 48.9518 36.1231 48.8952C36.7285 48.8097 37.0458 48.7243 37.3917 48.6392C37.9686 48.4968 38.1993 48.1841 38.2281 47.473C38.3148 45.7664 38.3148 42.5237 38.2859 40.2769V40.22C38.2859 39.964 38.2859 39.651 37.9686 39.4235C37.5072 39.1393 36.9592 38.8832 36.2383 38.6839C35.9787 38.5988 35.8058 38.4564 35.8346 38.2858C35.8346 38.1152 36.0076 37.9162 36.3826 37.8592C37.3343 37.7738 39.8141 37.1766 40.7946 36.75C40.8524 36.8067 40.939 36.9776 40.939 37.2051L40.9101 37.5178C40.8812 37.8307 40.8524 38.2007 40.8524 38.5703C40.8524 38.6839 40.9678 38.7693 41.0831 38.7693C41.1408 38.7693 41.1985 38.7409 41.2563 38.7124C43.1018 37.2903 44.7744 36.7782 45.6394 36.7782C47.0527 36.7782 48.1484 37.4326 48.9848 38.7978C49.0423 38.8832 49.1 38.9115 49.1867 38.9115C49.2444 38.9115 49.3307 38.8832 49.3596 38.8263C51.0611 37.5463 52.7625 36.7782 53.8871 36.7782C56.5691 36.7782 58.1553 38.7409 58.1553 42.0687C58.1553 43.0073 58.1553 44.2304 58.1264 45.3398C58.1264 46.3351 58.0976 47.2455 58.0976 47.8996C58.0976 48.0417 58.2994 48.4968 58.6167 48.5822C59.0203 48.7813 59.5683 48.8667 60.2893 48.9803H60.3181C60.3759 49.1794 60.2604 49.9189 60.1452 50.0613C59.972 50.0613 59.7124 50.0613 59.4242 50.0328C58.8762 50.0043 58.0976 49.9759 57.2325 49.9759C55.4445 49.9759 54.5217 50.0043 53.6275 50.0613C53.5701 49.8338 53.5412 49.1512 53.6275 48.9803C54.1467 48.8952 54.4062 48.8097 54.7235 48.7243C55.3004 48.5537 55.4445 48.2977 55.4733 47.5582C55.4733 47.018 55.5885 42.4101 55.4156 41.3007C55.2426 40.163 54.3774 38.8263 52.4741 38.8263C51.7531 38.8263 50.6285 39.1108 49.5326 39.9355C49.4751 39.9924 49.4174 40.1345 49.4174 40.22V40.2484C49.5326 40.8456 49.5326 41.5285 49.5326 42.5807V44.4294C49.5326 45.7095 49.5037 46.9041 49.5326 47.8142C49.5326 48.4401 49.9076 48.5822 50.2249 48.6961C50.3979 48.7243 50.5131 48.7528 50.6574 48.7813C50.917 48.8382 51.1765 48.8952 51.5802 48.9803C51.6379 49.0942 51.6379 49.4639 51.5513 49.7768C51.5224 49.9474 51.4647 50.0328 51.4361 50.0613C50.4556 50.0328 49.4462 50.0043 47.9755 50.0043C47.543 50.0043 46.7931 50.0328 46.1585 50.0328C45.6394 50.0328 45.1492 50.0613 44.861 50.0613C44.8321 50.0043 44.7744 49.8053 44.7744 49.4923C44.7744 49.2363 44.8321 49.0373 44.8899 48.9803C45.0339 48.9518 45.1492 48.9236 45.2935 48.9236C45.6394 48.8667 45.9278 48.8097 46.2163 48.7528C46.7065 48.6107 46.8795 48.3547 46.9083 47.729C46.995 46.3069 47.0813 42.2395 46.8795 41.2155C46.5336 39.5658 45.5819 38.7409 44.0534 38.7409C43.1595 38.7409 42.0347 39.1675 41.1119 39.8503C40.9678 39.964 40.8524 40.2484 40.8524 40.5044V42.1826C40.8524 44.2304 40.8524 46.7904 40.8812 47.8996C40.9101 48.2408 41.0253 48.6392 41.6888 48.7813C41.8329 48.8097 42.0636 48.8667 42.352 48.8952L42.8711 48.9803C42.9289 49.1512 42.9 49.8338 42.7845 50.0613C42.4961 50.0613 42.1502 50.0328 41.7463 50.0328C41.1408 50.0043 40.3621 49.9759 39.4971 49.9759C38.4877 49.9759 37.7668 50.0043 37.1899 50.0328C36.7863 49.9759 36.469 49.9759 36.1231 49.9759Z" fill="#442D22"/>
<path fill-rule="evenodd" clip-rule="evenodd" d="M20.9541 56.8024L19.7717 56.404C19.7717 56.404 19.9161 50.4594 17.7533 50.0329C16.3114 48.3832 17.984 -19.9369 23.1746 49.8053C23.1746 49.8053 21.3869 50.687 21.0696 52.1945C20.7234 53.6736 20.9541 56.8024 20.9541 56.8024Z" fill="white"/>
<path fill-rule="evenodd" clip-rule="evenodd" d="M20.9541 56.8024L19.7717 56.404C19.7717 56.404 19.9161 50.4594 17.7533 50.0329C16.3114 48.3832 17.984 -19.9369 23.1746 49.8053C23.1746 49.8053 21.3869 50.687 21.0696 52.1945C20.7234 53.6736 20.9541 56.8024 20.9541 56.8024Z" fill="#A6A385"/>
<path fill-rule="evenodd" clip-rule="evenodd" d="M21.5887 51.0567C21.5887 51.0567 31.9415 44.3441 29.5191 30.3785C27.1833 20.2245 21.6751 16.8966 21.0696 15.6166C20.4064 14.7065 19.7718 13.1138 19.7718 13.1138L20.2046 41.3575C20.2046 41.3859 19.3104 50.0042 21.5887 51.0567Z" fill="white"/>
<path fill-rule="evenodd" clip-rule="evenodd" d="M21.5887 51.0567C21.5887 51.0567 31.9415 44.3441 29.5191 30.3785C27.1833 20.2245 21.6751 16.8966 21.0696 15.6166C20.4064 14.7065 19.7718 13.1138 19.7718 13.1138L20.2046 41.3575C20.2046 41.3859 19.3104 50.0042 21.5887 51.0567Z" fill="#499D4A"/>
<path fill-rule="evenodd" clip-rule="evenodd" d="M19.1663 51.4264C19.1663 51.4264 9.44784 44.8844 10.0247 33.3652C10.5724 21.8458 17.436 16.1857 18.7624 15.1617C19.6277 14.2516 19.6565 13.9101 19.7143 13C20.3197 14.28 20.2045 32.1422 20.2909 34.2469C20.5504 42.3531 19.8295 49.8907 19.1663 51.4264Z" fill="white"/>
<path fill-rule="evenodd" clip-rule="evenodd" d="M19.1663 51.4264C19.1663 51.4264 9.44784 44.8844 10.0247 33.3652C10.5724 21.8458 17.436 16.1857 18.7624 15.1617C19.6277 14.2516 19.6565 13.9101 19.7143 13C20.3197 14.28 20.2045 32.1422 20.2909 34.2469C20.5504 42.3531 19.8295 49.8907 19.1663 51.4264Z" fill="#58AA50"/>
</svg>
