<svg width="130" height="75" viewBox="0 0 130 75" fill="none" xmlns="http://www.w3.org/2000/svg">
<rect width="130" height="75" fill="white"/>
<path d="M65.3662 69.8125C65.014 69.8125 64.6853 69.7168 64.3801 69.5493L61.2578 67.6593C60.7883 67.3961 61.023 67.3004 61.1639 67.2525C61.7978 67.0372 61.9151 66.9894 62.5725 66.6066C62.6429 66.5587 62.7368 66.5826 62.8072 66.6305L65.2018 68.0899C65.2957 68.1378 65.4131 68.1378 65.4835 68.0899L74.8506 62.5633C74.9445 62.5154 74.9914 62.4197 74.9914 62.3001V51.2707C74.9914 51.1511 74.9445 51.0554 74.8506 51.0075L65.4835 45.5048C65.3896 45.457 65.2722 45.457 65.2018 45.5048L55.8348 51.0075C55.7409 51.0554 55.6939 51.175 55.6939 51.2707V62.3001C55.6939 62.3958 55.7409 62.5154 55.8348 62.5633L58.3937 64.0705C59.7788 64.7883 60.6474 63.9509 60.6474 63.1135V52.2277C60.6474 52.0842 60.7648 51.9406 60.9291 51.9406H62.1264C62.2673 51.9406 62.4081 52.0602 62.4081 52.2277V63.1135C62.4081 65.0036 61.3987 66.1042 59.6379 66.1042C59.098 66.1042 58.6754 66.1041 57.4781 65.506L55.0131 64.0705C54.4027 63.7117 54.0271 63.0418 54.0271 62.324V51.2946C54.0271 50.5769 54.4027 49.907 55.0131 49.5481L64.3801 44.0215C64.9671 43.6865 65.7652 43.6865 66.3522 44.0215L75.7192 49.5481C76.3296 49.907 76.7052 50.5769 76.7052 51.2946V62.324C76.7052 63.0418 76.3296 63.7117 75.7192 64.0705L66.3522 69.5972C66.047 69.7407 65.6948 69.8125 65.3662 69.8125ZM68.2537 62.2283C64.1454 62.2283 63.3002 60.3143 63.3002 58.6874C63.3002 58.5439 63.4176 58.4003 63.582 58.4003H64.8027C64.9436 58.4003 65.061 58.496 65.061 58.6396C65.2488 59.9076 65.7887 60.5296 68.2772 60.5296C70.2492 60.5296 71.0944 60.0751 71.0944 58.9985C71.0944 58.3764 70.8596 57.9218 67.7842 57.6108C65.2253 57.3476 63.6289 56.7734 63.6289 54.692C63.6289 52.7541 65.2253 51.6057 67.9016 51.6057C70.9066 51.6057 72.3856 52.6584 72.5734 54.9552C72.5734 55.0269 72.5499 55.0987 72.5029 55.1705C72.456 55.2183 72.3856 55.2662 72.3151 55.2662H71.0944C70.977 55.2662 70.8596 55.1705 70.8361 55.0508C70.5544 53.735 69.8266 53.3043 67.9016 53.3043C65.7418 53.3043 65.4835 54.0699 65.4835 54.6441C65.4835 55.3379 65.7887 55.5533 68.6998 55.9361C71.5874 56.3189 72.949 56.8691 72.949 58.9267C72.9255 61.0321 71.2352 62.2283 68.2537 62.2283Z" fill="#539E43"/>
<path d="M36.3025 26.676C36.3025 26.2454 36.0677 25.8386 35.6921 25.6233L25.7381 19.7856C25.5738 19.6899 25.386 19.6421 25.1982 19.6182H25.1043C24.9165 19.6182 24.7287 19.6899 24.5643 19.7856L14.6104 25.6233C14.2348 25.8386 14 26.2454 14 26.676L14.0235 42.3707C14.0235 42.5861 14.1409 42.8014 14.3287 42.8971C14.5165 43.0167 14.7512 43.0167 14.9156 42.8971L20.8316 39.4519C21.2072 39.2366 21.442 38.8299 21.442 38.3992V31.0543C21.442 30.6236 21.6767 30.2169 22.0524 30.0016L24.5643 28.5182C24.7521 28.3986 24.9634 28.3507 25.1747 28.3507C25.386 28.3507 25.5973 28.3986 25.7616 28.5182L28.2736 30.0016C28.6492 30.2169 28.884 30.6236 28.884 31.0543V38.3992C28.884 38.8299 29.1187 39.2366 29.4944 39.4519L35.4104 42.8971C35.5982 43.0167 35.833 43.0167 36.0208 42.8971C36.2086 42.8014 36.326 42.5861 36.326 42.3707L36.3025 26.676Z" fill="#333333"/>
<path d="M84.1472 5.07177C83.9594 4.97608 83.7246 4.97608 83.5603 5.07177C83.3725 5.1914 83.2551 5.3828 83.2551 5.59812V21.1493C83.2551 21.2929 83.1847 21.4364 83.0438 21.5321C82.9029 21.6039 82.7621 21.6039 82.6212 21.5321L80.1327 20.0727C79.7571 19.8574 79.3111 19.8574 78.9355 20.0727L68.9815 25.9343C68.6059 26.1496 68.3711 26.5563 68.3711 26.987V38.6862C68.3711 39.1169 68.6059 39.5236 68.9815 39.7389L78.9355 45.6005C79.3111 45.8159 79.7571 45.8159 80.1327 45.6005L90.0867 39.7389C90.4623 39.5236 90.6971 39.1169 90.6971 38.6862V9.5218C90.6971 9.06723 90.4623 8.66051 90.0867 8.44518L84.1472 5.07177ZM83.2316 34.8343C83.2316 34.954 83.1847 35.0497 83.0908 35.0975L79.6867 37.1072C79.5928 37.1551 79.4754 37.1551 79.3815 37.1072L75.9774 35.0975C75.8835 35.0497 75.8366 34.93 75.8366 34.8343V30.815C75.8366 30.6953 75.8835 30.5996 75.9774 30.5518L79.3815 28.5421C79.4754 28.4942 79.5928 28.4942 79.6867 28.5421L83.0908 30.5518C83.1847 30.5996 83.2316 30.7193 83.2316 30.815V34.8343Z" fill="#333333"/>
<path d="M117.272 30.7192C117.648 30.5039 117.859 30.0972 117.859 29.6665V26.8194C117.859 26.3888 117.624 25.9821 117.272 25.7667L107.389 19.9291C107.013 19.7137 106.567 19.7137 106.191 19.9291L96.2375 25.7907C95.8619 26.006 95.6271 26.4127 95.6271 26.8434V38.5426C95.6271 38.9733 95.8619 39.38 96.2375 39.5953L106.121 45.3373C106.497 45.5526 106.943 45.5526 107.295 45.3373L113.281 41.94C113.469 41.8443 113.586 41.629 113.586 41.4136C113.586 41.1983 113.469 40.983 113.281 40.8873L103.28 35.0257C103.093 34.9061 102.975 34.7147 102.975 34.4993V30.8388C102.975 30.6235 103.093 30.4082 103.28 30.3125L106.403 28.4942C106.591 28.3746 106.825 28.3746 107.013 28.4942L110.135 30.3125C110.323 30.4321 110.441 30.6235 110.441 30.8388V33.7098C110.441 33.9251 110.558 34.1405 110.746 34.2362C110.934 34.3558 111.168 34.3558 111.356 34.2362L117.272 30.7192Z" fill="#333333"/>
<path d="M106.637 30.1689C106.708 30.1211 106.802 30.1211 106.872 30.1689L108.774 31.2934C108.844 31.3413 108.891 31.413 108.891 31.5087V33.7577C108.891 33.8534 108.844 33.9252 108.774 33.973L106.872 35.0975C106.802 35.1453 106.708 35.1453 106.637 35.0975L104.736 33.973C104.665 33.9252 104.619 33.8534 104.619 33.7577V31.5087C104.619 31.413 104.665 31.3413 104.736 31.2934L106.637 30.1689Z" fill="#539E43"/>
<mask id="mask0_15:1923" style="mask-type:alpha" maskUnits="userSpaceOnUse" x="41" y="19" width="23" height="27">
<path d="M52.9472 19.9769C52.5715 19.7616 52.1255 19.7616 51.7499 19.9769L41.8664 25.7907C41.4907 26.006 41.2794 26.4127 41.2794 26.8434V38.4948C41.2794 38.9254 41.5142 39.3322 41.8664 39.5475L51.7499 45.3612C52.1255 45.5766 52.5715 45.5766 52.9472 45.3612L62.8307 39.5475C63.2063 39.3322 63.4176 38.9254 63.4176 38.4948V26.8434C63.4176 26.4127 63.1828 26.006 62.8307 25.7907L52.9472 19.9769Z" fill="white"/>
</mask>
<g mask="url(#mask0_15:1923)">
<path d="M52.9472 19.9769C52.5715 19.7616 52.1255 19.7616 51.7499 19.9769L41.8664 25.7907C41.4907 26.006 41.2794 26.4127 41.2794 26.8434V38.4948C41.2794 38.9254 41.5142 39.3322 41.8664 39.5475L51.7499 45.3612C52.1255 45.5766 52.5715 45.5766 52.9472 45.3612L62.8307 39.5475C63.2063 39.3322 63.4176 38.9254 63.4176 38.4948V26.8434C63.4176 26.4127 63.1828 26.006 62.8307 25.7907L52.9472 19.9769Z" fill="url(#paint0_linear_15:1923)"/>
<path d="M62.8542 25.7901L52.9237 19.9763C52.8298 19.9285 52.7124 19.8806 52.6185 19.8567L41.4908 39.2837C41.5847 39.4033 41.702 39.499 41.8194 39.5708L51.7499 45.3845C52.0316 45.552 52.3603 45.5999 52.6655 45.5042L63.1124 26.0293C63.042 25.9336 62.9481 25.8618 62.8542 25.7901Z" fill="url(#paint1_linear_15:1923)"/>
<path fill-rule="evenodd" clip-rule="evenodd" d="M62.8777 39.5476C63.1594 39.3802 63.3707 39.0931 63.4646 38.782L52.5716 19.8335C52.2898 19.7857 51.9846 19.8096 51.7264 19.9771L41.8664 25.7669L52.5011 45.5289C52.642 45.5049 52.8063 45.4571 52.9472 45.3853L62.8777 39.5476Z" fill="url(#paint2_linear_15:1923)"/>
<path fill-rule="evenodd" clip-rule="evenodd" d="M62.8776 39.5473L52.9706 45.3611C52.8298 45.4328 52.6889 45.4807 52.5246 45.5046L52.7124 45.8635L63.6993 39.3799V39.2363L63.4176 38.7578C63.3706 39.0928 63.1594 39.3799 62.8776 39.5473Z" fill="url(#paint3_linear_15:1923)"/>
<path fill-rule="evenodd" clip-rule="evenodd" d="M62.8776 39.5473L52.9706 45.3611C52.8298 45.4328 52.6889 45.4807 52.5246 45.5046L52.7124 45.8635L63.6993 39.3799V39.2363L63.4176 38.7578C63.3706 39.0928 63.1594 39.3799 62.8776 39.5473Z" fill="url(#paint4_linear_15:1923)"/>
</g>
<defs>
<linearGradient id="paint0_linear_15:1923" x1="56.3751" y1="24.3108" x2="45.2472" y2="41.4675" gradientUnits="userSpaceOnUse">
<stop stop-color="#41873F"/>
<stop offset="0.3288" stop-color="#418B3D"/>
<stop offset="0.6352" stop-color="#419637"/>
<stop offset="0.9319" stop-color="#3FA92D"/>
<stop offset="1" stop-color="#3FAE2A"/>
</linearGradient>
<linearGradient id="paint1_linear_15:1923" x1="50.8479" y1="34.033" x2="78.2108" y2="19.4455" gradientUnits="userSpaceOnUse">
<stop offset="0.1376" stop-color="#41873F"/>
<stop offset="0.4032" stop-color="#54A044"/>
<stop offset="0.7136" stop-color="#66B848"/>
<stop offset="0.9081" stop-color="#6CC04A"/>
</linearGradient>
<linearGradient id="paint2_linear_15:1923" x1="40.9185" y1="32.6696" x2="63.7884" y2="32.6696" gradientUnits="userSpaceOnUse">
<stop offset="0.0919165" stop-color="#6CC04A"/>
<stop offset="0.2864" stop-color="#66B848"/>
<stop offset="0.5968" stop-color="#54A044"/>
<stop offset="0.8624" stop-color="#41873F"/>
</linearGradient>
<linearGradient id="paint3_linear_15:1923" x1="40.9185" y1="42.3302" x2="63.7884" y2="42.3302" gradientUnits="userSpaceOnUse">
<stop offset="0.0919165" stop-color="#6CC04A"/>
<stop offset="0.2864" stop-color="#66B848"/>
<stop offset="0.5968" stop-color="#54A044"/>
<stop offset="0.8624" stop-color="#41873F"/>
</linearGradient>
<linearGradient id="paint4_linear_15:1923" x1="67.1202" y1="23.7599" x2="61.111" y2="54.6577" gradientUnits="userSpaceOnUse">
<stop stop-color="#41873F"/>
<stop offset="0.3288" stop-color="#418B3D"/>
<stop offset="0.6352" stop-color="#419637"/>
<stop offset="0.9319" stop-color="#3FA92D"/>
<stop offset="1" stop-color="#3FAE2A"/>
</linearGradient>
</defs>
</svg>
